<svg width="196" height="196" viewBox="0 0 196 196" fill="none" xmlns="http://www.w3.org/2000/svg">
<rect width="196" height="196" rx="98" fill="white"/>
<path d="M101.152 130.926C102.389 130.926 103.614 130.682 104.757 130.207C105.9 129.732 106.938 129.037 107.812 128.16L136.759 99.1287C142.055 93.833 145.03 86.6505 145.03 79.1612C145.03 71.6719 142.055 64.4894 136.759 59.1937C131.463 53.898 124.281 50.9229 116.792 50.9229C109.302 50.9229 102.12 53.898 96.8241 59.1937L67.83 88.1877C66.0656 89.9516 65.0741 92.3441 65.0736 94.8389V126.222C65.0736 127.47 65.5692 128.666 66.4513 129.549C67.3334 130.431 68.5299 130.926 69.7774 130.926H101.152Z" stroke="black" stroke-width="9.40755" stroke-linecap="round" stroke-linejoin="round"/>
<path d="M116.815 79.1848L50.9623 145.038" stroke="black" stroke-width="9.40755" stroke-linecap="round" stroke-linejoin="round"/>
<path d="M123.871 112.111H83.8887" stroke="black" stroke-width="9.40755" stroke-linecap="round" stroke-linejoin="round"/>
</svg>
